<?xml version="1.0" encoding="UTF-8"?>
<svg id="Layer_2" xmlns="http://www.w3.org/2000/svg" viewBox="0 0 2400 1900">
  <defs>
    <style>
      .cls-1 {
        fill-rule: evenodd;
      }

      .cls-1, .cls-2 {
        fill: #fff;
      }
    </style>
  </defs>
  <g id="Layer_1-2" data-name="Layer_1">
    <g>
      <rect class="cls-2" x="398.12" y="1245.96" width="524.8" height="469.3"/>
      <path class="cls-1" d="M848.7,573.25c10.1-8.56,16.83-21.02,21.54-32.28,12.9-30.81,18.3-66.32,13.48-99.05-1.57-10.7-5.18-24.04-11.53-30.24-2.15-2.09-6.37-3.98-11.12-5.47,13.54,40.12,4.47,85.64-3.59,125.78-2.77,13.78-5.84,27.51-8.79,41.26Z"/>
      <path class="cls-1" d="M560.31,381.17c-14.95-1.68-29.9-3.28-44.87-4.67-31.09-1.08-62.22-1.14-93.33-1.14-5.14,0-8.65-2.27-10.52-5.36-2.9-1.4-4.75-3.81-5.6-6.51-2.66,3-5.29,6.05-7.86,9.18"/>
      <path class="cls-1" d="M787.38,376.78c7.57.1,15.36.16,23.21.36-2.89-1.73-5.93-3.12-9.11-4.04-17.35-5.06-37-4.65-55-4.5-23.57.19-47.09,1.57-70.59,3.33,8.94,1.03,17.87,2.03,26.8,2.97,27.96,2.94,56.59,1.5,84.68,1.88Z"/>
      <path class="cls-1" d="M500.66,234.24c-64.93,17.6-74.9,38.06-127.72,89.59,1.22,0,2.43.03,3.65.04,2.76-2.98,7.19-4.68,12.72-3.27,6.54,1.67,13.09,3,19.66,4.09,19.77.81,39.51,2.13,59.22,3.81,12.98-.22,26.01-.96,39.1-1.92,40.43-2.95,80.79-4.58,121.33-5.88,62.73-2.02,126.69-4.77,189.39-.59,19.63,1.31,46,4.18,56.99,20.75,11.16,16.82,6.77,40.57,4.6,58.87-7.02,59.3-5.92,119.07-13.91,178.35-4.23,31.36-9.67,62.58-15.41,93.74-3.16,17.17-6.74,34.22-9.01,51.38,67.54,7.23,134.63,17.65,201.45,29.5-14.51-13.32-29.44-26.74-44.9-40.25,0,0,133.67,17.11,185.82,49.88,0,0-34.22-131.09-206.99-226.58,0,0,148.33,39.9,213.51,109.72,0,0-6.52-113.98-176.04-232.26-35.86.44-11.08-186.65,233.36-344.62,89.51,121.08-118.24,268.64-233.36,344.62C1300.69,338.28,1334.18,117.82,1284.7,0c0,0-332.5,8.53-472.66,205.17,0,0-170.61,10.8-255.1,19.17l-56.28,9.91Z"/>
      <g>
        <path class="cls-1" d="M1586.89,1615.57c108.52-75.33,165.5-199.35,226.65-324.67-134.89,170.43-361.15,411.49-570.01,424.36.13.78.24,1.56.38,2.34,4.29,24.07,11.77,47.38,20.88,70.22,61.42,12.74,129.19,10.92,199.11-10.73,124.07-38.4,199.76-134.93,242.26-230.58,0,0-67.32,72.07-119.27,69.06Z"/>
        <path class="cls-1" d="M1857.51,1204.01c-.59,1.1-1.17,2.21-1.76,3.31.12.27.22.55.34.82,0,0,.46-1.47,1.41-4.13Z"/>
        <path class="cls-1" d="M1212.8,1489.67c12.08,6.87,26.59,10.92,43.97,10.86,97.21-.34,130.49-236.58,144.42-286.65,14.2-51.05,27.77-103.39,44.94-155.12,18.35-55.28,40.8-109.86,72.57-161.38,118.5-192.22,290.03-238.63,454.38-224.32-181.92-31.8-382.51-.19-515.92,216.21-31.76,51.53-54.22,106.1-72.57,161.38-17.17,51.72-30.74,104.06-44.94,155.12-13.05,46.93-43.11,257.37-126.85,283.9Z"/>
        <path class="cls-1" d="M1973.07,673.06c-164.35-14.31-335.87,32.09-454.38,224.32-31.76,51.53-54.22,106.1-72.57,161.38-17.17,51.72-30.74,104.06-44.94,155.12-13.93,50.08-47.21,286.32-144.42,286.65-17.38.06-31.89-3.99-43.97-10.86-1.27.4-2.57.75-3.87,1.07,11.9,17.05,17.76,37.16,21.22,56.99,5.13,29.37,5.93,59.13,6.73,88.79.43,15.73,1.12,31.25,2.53,46.74,3.04,4.18,6.4,8.19,10.16,11.93,7.46,7.41,2.23,16.8-6.29,18.6.08.49.15.98.23,1.47,208.86-12.87,435.12-253.93,570.01-424.36,13.65-27.98,27.53-56.01,42.22-83.58.59-1.1,1.17-2.21,1.76-3.31,5.88-16.31,31.78-79.65,101.2-152.48,27.95-32.93,57.75-63.3,89.84-89.95,93.7-77.8,207.02-123.84,351.45-109.01,0,0-198.78-139.62-426.93-179.51ZM1895.81,985.33c52.05-23.11,118.48-39.14,118.48-39.14-88.82,58.74-143.63,121.85-176.3,170.45-33.01,49.1-43.44,83.4-43.44,83.4-32.26-71.92-14-142.44-2.86-173.2,3.71-10.25,6.63-16.08,6.63-16.08-59.45,1.32-104.63,15.45-138.62,34.1-72.85,39.96-94.28,100.67-94.28,100.67,15.71-229.23,332.4-328.39,332.4-328.39-19.88-10.53-38.67-19.14-56.38-26.16-22.62-8.97-43.45-15.3-62.49-19.64-55.97-1.5-84.8,15.29-84.8,15.29,12.29-8.42,24.87-15.91,37.65-22.64-65.42-5.15-99.2,14.53-99.2,14.53,110.53-75.73,243.39-80.23,360.8-59.73,114.85,20.05,214.9,64.03,264.78,88.72,21.51,10.65,33.7,17.72,33.7,17.72-213.78-12.22-396.06,160.11-396.06,160.11Z"/>
        <path class="cls-1" d="M1958.71,1051.53c-69.42,72.83-95.32,136.17-101.2,152.48,26.32-49.13,55.35-96.73,90.62-139.79,3.5-4.27,7.03-8.5,10.58-12.69Z"/>
      </g>
      <path class="cls-2" d="M1311.88,1615.45l-393.06-721.46v-491.77h6.81c28.22,0,51.06-20.46,51.06-45.66,0-25.21-22.84-45.66-51.06-45.66H408.79c-28.22,0-51.06,20.46-51.06,45.66,0,25.21,22.84,45.66,51.06,45.66h6.81v491.77S22.53,1615.45,22.53,1615.45c-33.63,61.74-29.41,133.34,11.3,191.58,40.68,58.21,110.84,92.97,187.61,92.97h891.52c76.77,0,146.93-34.77,187.61-92.97,40.72-58.24,44.94-129.84,11.3-191.58ZM1214.01,1758.59c-21.92,31.36-59.71,50.08-101.04,50.08H221.45c-41.33,0-79.12-18.72-101.04-50.08-21.89-31.33-24.17-69.9-6.06-103.14l403.38-740.4V402.21h298.97v512.84l403.38,740.4c18.11,33.24,15.83,71.81-6.06,103.14ZM1177.23,1674.12l-258.92-475.26c-205.71-99.51-336.21,109.53-502.21,0l-258.92,475.25c-10.87,19.95-9.5,43.08,3.65,61.89,13.15,18.81,35.82,30.04,60.62,30.04h891.5c24.81,0,47.47-11.23,60.62-30.04,13.15-18.81,14.51-41.95,3.65-61.89ZM514.01,1510.33c-28.2,0-51.06-20.44-51.06-45.66s22.86-45.66,51.06-45.66c28.2,0,51.06,20.44,51.06,45.66s-22.86,45.66-51.06,45.66ZM714.87,1677.77c-18.8,0-34.04-13.63-34.04-30.44,0-16.81,15.24-30.44,34.04-30.44s34.04,13.63,34.04,30.44-15.24,30.44-34.04,30.44ZM789.76,1403.78c-37.6,0-68.09-27.26-68.09-60.89,0-33.63,30.48-60.89,68.09-60.89,37.6,0,68.09,27.26,68.09,60.89s-30.48,60.89-68.09,60.89Z"/>
    </g>
  </g>
</svg>